<svg xmlns="http://www.w3.org/2000/svg" viewBox="0 0 183.13 183.1">
    <path
        d="M91.43 54.92c-21.22 0-42.44-.11-63.66 0A27.89 27.89 0 0 1 2 37.83C-3.86 23.64 3.69 6.67 18.22 1.64A28.93 28.93 0 0 1 27.76 0h127.47a27.9 27.9 0 0 1 26.53 18.88c4.63 13.59-2.85 29.4-16.31 34.3a28.46 28.46 0 0 1-9.93 1.75q-32.04-.03-64.09-.01z"
        fill="#1faeff" />
    <path
        d="M60.19 64c10.26 0 20.51-.18 30.81 0 11.83.19 20.7 5.51 25.68 16.34a27.34 27.34 0 0 1-14.55 36.61 28.88 28.88 0 0 1-11.27 2.14H28.34c-12.54 0-22.8-7-26.82-18.85A27.36 27.36 0 0 1 17 66.11 29.41 29.41 0 0 1 28.44 64c10.56-.07 21.17 0 31.75 0z"
        fill="#97e5ff" />
    <path d="M55 155.61c.2 15.11-12.62 27.79-28.08 27.49a27.52 27.52 0 0 1 .67-55A27.32 27.32 0 0 1 55 155.61z"
        fill="#136fff" />
</svg>