<svg xmlns="http://www.w3.org/2000/svg"
        viewBox="0.0032072067260742188 -0.023705730214715004 130.88385009765625 104.47969818115234">
    <title>logo</title>
    <path
        d="M79.34 99.73c-9.67 7.92-25 5.64-32.94-5C36.16 80.88 26 67 15.86 53.08 12.07 47.92 8.22 42.8 4.51 37.59-5.5 23.52 2 4 18.77.55a22.45 22.45 0 0 1 19.06 4.34C37.7 6 36.75 6.53 36.07 7.22c-7.71 7.75-9.13 20.09-3 29 5.83 8.45 12 16.69 18.06 25 5.77 7.88 11.63 15.7 17.41 23.58 3.66 4.96 7.21 9.96 10.8 14.93z"
        fill="#0c4dc4"></path>
    <path
        d="M79.34 99.73c-3.59-5-7.14-10-10.76-14.91-5.78-7.88-11.64-15.7-17.41-23.58C45.1 53 38.94 44.71 33.11 36.26c-6.17-8.95-4.75-21.29 3-29 .68-.69 1.63-1.21 1.76-2.33h.94c2 2.8 4.28 5.42 6.3 8.23 7 9.75 14.13 19.39 21.25 29.05 6 8.12 12.07 16.18 18 24.35a23.21 23.21 0 0 1 4.56 12.92c.18 3.89-.84 7.51-1.58 11.22-2.25 3.4-4.42 6.84-8 9.03z"
        fill="#1479e3"></path>
    <path
        d="M87.29 90.69c.71-3.69 1.76-7.33 1.58-11.22a23.21 23.21 0 0 0-4.56-12.92c-5.92-8.17-12-16.23-18-24.35-7.11-9.66-14.25-19.3-21.24-29.05-2-2.81-4.28-5.43-6.3-8.23C48.37-3 63.78-1.14 71.49 9c4.83 6.35 9.51 12.86 14.23 19.26.56.75.85 1.88 2.07 2 1.35 3.74 4.28 6.38 6.52 9.51 1 2.19 2.69 3.92 4.11 5.83 7.32 9.86 7.33 20.5-.09 30.37-3.69 4.87-7.07 10.03-11.04 14.72z"
        fill="#1fa8f8"></path>
    <path
        d="M94.31 39.73c-2.24-3.13-5.17-5.77-6.52-9.51a40.4 40.4 0 0 1-1.13-8.85 22.13 22.13 0 0 1 44.22 0c.19 8.77-3.46 15.57-10.95 19.93-7.69 4.47-15.56 4.06-23.22-.47-.71-.41-1.4-1.15-2.4-1.1z"
        fill="#1fa8f8"></path>
</svg>
